<?xml version="1.0" encoding="utf-8"?>
<!-- Generator: Adobe Illustrator 21.1.0, SVG Export Plug-In . SVG Version: 6.00 Build 0)  -->
<svg version="1.1" id="Layer_1" xmlns="http://www.w3.org/2000/svg" xmlns:xlink="http://www.w3.org/1999/xlink" x="0px" y="0px"
	 viewBox="0 0 151 150" style="enable-background:new 0 0 151 150;" xml:space="preserve">
<style type="text/css">
	.st0{fill:#C5DBF9;}
	.st1{fill:#FFFFFF;}
	.st2{display:none;fill:#76D0E3;}
	.st3{fill:#E8ECFC;}
	.st4{fill:#A6B6DD;}
	.st5{display:none;}
	.st6{display:inline;fill:#DC92FF;}
	.st7{display:inline;fill:#73D0E4;}
</style>
<g>
	<g id="XMLID_8_">
		<g>
			<path class="st0" d="M70.6,100.8c2.4-1.2,3.9-3.4,4.3-5.8l4.3,8.9c-0.6,0.2-1.2,0.3-1.9,0.1l-7.6-2.5l-0.1-0.3
				C70,101.1,70.3,101,70.6,100.8z"/>
			<path class="st0" d="M60.1,97.1c0.2,0.4,0.4,0.7,0.6,1l-0.3,0.2L22.9,86.1c-1.3-0.4-2.5-0.9-3.7-1.5l10.1-4.9c-2.1-0.6-4-2-5-4.2
				c-1.9-3.9-0.3-8.7,3.6-10.6c3.2-1.6,7-0.7,9.3,1.8c0.5,0.5,0.9,1.2,1.2,1.8c1,2.1,1,4.5,0.2,6.5l21.4-10.4l10.8,22.1
				c-2.2-1.2-4.8-1.3-7.2-0.2C59.8,88.5,58.2,93.2,60.1,97.1z"/>
			<path class="st1" d="M79.3,103.9l6.3,12.9l-21.4,10.4c0.8-2,0.9-4.3-0.2-6.4c-1.2-2.5-3.5-4-6-4.4c-1.5-0.2-3.1,0-4.6,0.7
				c-3.7,1.8-5.4,6.3-3.8,10.1c0.1,0.2,0.1,0.3,0.2,0.5c1,2.1,2.9,3.5,5,4.1l-21.4,10.4l-4.8-9.9L23,120.9c-0.5,2.2-2,4.1-4.1,5.2
				c-3.9,1.9-8.5,0.3-10.4-3.6S8.1,113.9,12,112c2.2-1.1,4.6-1,6.6-0.1L7.9,90.1l11.3-5.5c1.2,0.6,2.4,1.1,3.7,1.5l37.5,12.3
				l0.3-0.2c2,2.9,5.7,4.1,9,3l0.1,0.3l7.6,2.5C78,104.2,78.7,104.1,79.3,103.9z"/>
		</g>
	</g>
	<path class="st2" d="M61.6,88l-25.5-8.4c-1.3-0.4-2.5-0.9-3.7-1.5l6.2-3c0,0,0,0,0,0l-6.4,3.1l-0.2-0.3c-3.5-1.8-6.3-4.3-8.5-7.2
		c-0.3,1.6-0.1,3.2,0.7,4.8c1,2.1,2.9,3.6,5,4.2l-10.1,4.9c1.2,0.6,2.4,1.1,3.7,1.5l37.5,12.3l0.3-0.2c-0.2-0.3-0.4-0.7-0.6-1
		C58.5,94,59.2,90.3,61.6,88z"/>
	<path class="st3" d="M7.9,90.1l10.7,21.9c-2-0.9-4.5-1-6.6,0.1c-3.9,1.9-5.5,6.6-3.6,10.4s6.6,5.5,10.4,3.6c2.2-1.1,3.6-3,4.1-5.2
		l10.4,21.3l4.4-2.1L12.3,87.9L7.9,90.1z"/>
	<path class="st4" d="M80.2,103.5C80.2,103.5,80.2,103.5,80.2,103.5l-4.3-8.9c-0.2-0.4-0.6-0.6-1-0.5c-0.4,0.1-0.8,0.4-0.8,0.8
		c-0.4,2.2-1.8,4.1-3.8,5.1c-0.3,0.1-0.6,0.2-0.8,0.3c-2.9,1-6.1-0.1-7.9-2.6c-0.2-0.3-0.4-0.6-0.5-0.9c-1.7-3.4-0.3-7.6,3.1-9.3
		c2-1,4.3-0.9,6.3,0.2c0.4,0.2,0.8,0.1,1.2-0.2c0.3-0.3,0.4-0.8,0.2-1.1L61,64.2c-0.2-0.5-0.8-0.7-1.3-0.5l-19.5,9.5
		c0.2-1.7,0-3.5-0.8-5.1C39,67.4,38.5,66.7,38,66c-2.6-2.9-6.9-3.8-10.5-2c-4.4,2.1-6.2,7.5-4.1,11.9c0.8,1.6,2,2.9,3.5,3.8
		L7.5,89.2C7,89.4,6.8,90,7,90.5l9.7,19.9c-1.8-0.3-3.6,0-5.2,0.8c-4.3,2.1-6.1,7.4-4,11.8c2.1,4.4,7.4,6.2,11.7,4.1
		c1.6-0.8,3-2.1,3.8-3.6l9.4,19.3c0.2,0.5,0.8,0.7,1.3,0.5l21.4-10.4c0.4-0.2,0.6-0.6,0.5-1c0-0.4-0.3-0.7-0.7-0.9
		c-1.9-0.5-3.5-1.8-4.3-3.6c-0.1-0.1-0.1-0.3-0.2-0.4c-1.4-3.4,0.1-7.2,3.3-8.8c1.2-0.6,2.6-0.8,4-0.6c2.3,0.3,4.2,1.8,5.3,3.8
		c0.9,1.8,0.9,3.8,0.2,5.6c-0.2,0.4-0.1,0.8,0.2,1.1c0.3,0.3,0.7,0.3,1.1,0.2L86,117.7c0.5-0.2,0.7-0.8,0.5-1.3L80.2,103.5
		C80.2,103.5,80.2,103.5,80.2,103.5z M75.1,97.6l2.6,5.4c0,0-0.1,0-0.1,0l-5.7-1.9C73.3,100.3,74.4,99.1,75.1,97.6z M29.6,78.7
		c-1.9-0.5-3.5-1.9-4.4-3.7c-1.7-3.4-0.3-7.6,3.1-9.3c2.7-1.3,6.1-0.7,8.1,1.6c0.4,0.5,0.8,1,1.1,1.6c0.9,1.8,0.9,3.9,0.2,5.7
		c-0.2,0.4-0.1,0.8,0.2,1.1s0.7,0.3,1.1,0.2l20.5-10L68.9,85c-1.9-0.4-3.9-0.2-5.7,0.7c-4.2,2-6,6.9-4.4,11.2L23.2,85.1
		c-0.6-0.2-1.1-0.4-1.7-0.6l8.2-4c0.4-0.2,0.6-0.6,0.5-1C30.3,79.1,30,78.8,29.6,78.7z M65.7,125.4c0.2-1.7,0-3.4-0.8-5
		c-1.3-2.7-3.8-4.5-6.7-4.9c-1.8-0.3-3.5,0-5.1,0.8c-4.2,2-6.1,7-4.3,11.3c0.1,0.2,0.2,0.4,0.2,0.6c0.8,1.6,2,2.9,3.5,3.7l-18.6,9.1
		l-10-20.5c-0.2-0.4-0.6-0.6-1-0.5c-0.4,0-0.8,0.3-0.8,0.8c-0.5,2-1.8,3.6-3.6,4.5c-3.4,1.6-7.4,0.2-9.1-3.2s-0.3-7.5,3.1-9.1
		c1.8-0.9,3.9-0.9,5.8-0.1c0.4,0.2,0.8,0.1,1.1-0.2c0.3-0.3,0.4-0.7,0.2-1.1l-10.2-21l10-4.9c1.1,0.5,2.2,1,3.4,1.4l37.5,12.3
		c0.1,0,0.2,0,0.3,0c2.2,2.6,5.7,3.8,8.9,3c0.1,0,0.1,0.1,0.2,0.1l7.6,2.5c0.5,0.2,1.1,0.2,1.7,0.1l5.5,11.3L65.7,125.4L65.7,125.4z
		"/>
</g>
<g>
	<g>
		<path class="st0" d="M90.5,23.6l9.6-8.6c0.1,1.3,0.1,2.7,0,4.1l-1,12.4l-0.2,0c0.1-1.9-0.5-3.9-1.9-5.5
			C95.3,24.2,92.9,23.4,90.5,23.6z"/>
	</g>
	<g>
		<path class="st0" d="M98.9,31.6l0.2,0l-3.4,43.1c-0.1,0.7-0.4,1.3-0.9,1.8l-6.1-6.8c0,2.1-1.1,4.5-2.8,6
			c-3.1,2.8-7.9,2.6-10.7-0.5c-2.8-3.1-2.5-7.9,0.6-10.7c1.7-1.5,4.2-2.4,6.3-2.2l-15.3-17l17.3-15.6c-0.5,2.3,0,4.8,1.7,6.7
			c2.8,3.1,7.6,3.3,10.7,0.5C98,35.4,98.8,33.5,98.9,31.6z"/>
	</g>
	<g>
		<path class="st1" d="M130.1,32.3l15.3,17l-17.3,15.5c2.2-0.1,4.3,0.7,5.9,2.5c2.8,3.1,2.5,7.8-0.6,10.6c-3.1,2.8-7.8,2.6-10.6-0.5
			c-1.6-1.7-2.2-4-1.8-6.1L104,86.7l-9.2-10.3c0.5-0.4,0.9-1,0.9-1.8l3.4-43.1l1-12.4c0.1-1.4,0.1-2.8,0-4.1l8-7.2l15.3,17
			c-2.1-0.2-4.3,0.4-5.9,1.9c-3.1,2.8-3.4,7.6-0.6,10.7c2.8,3.1,7.6,3.3,10.7,0.5C129.3,36.5,130.1,34.4,130.1,32.3z"/>
	</g>
	<g>
		<g>
			<path class="st3" d="M128,37.7l13.6,15.1l3.9-3.5l-15.3-17C130.1,34.2,129.4,36.2,128,37.7z"/>
		</g>
		<g>
			<path class="st3" d="M104.2,11.3l13.6,15.1c1.6-1.3,3.6-1.8,5.6-1.6l-15.3-17L104.2,11.3z"/>
		</g>
	</g>
	<g class="st5">
		<path class="st6" d="M95.7,74.7c-0.1,0.7-0.4,1.3-0.9,1.8l9.2,10.2c0,0,0,0,0.1,0l17.1-15.4c-0.3,2.1,0.3,4.4,1.8,6.1
			c2.8,3.1,7.5,3.3,10.6,0.5c2.2-2,3-5,2.2-7.7l-0.4-0.5l-39.1-2L95.7,74.7z"/>
	</g>
	<g class="st5">
		<path class="st7" d="M75.1,75.1c3.8,4.2,9.1,1.6,9.1,1.6c0.6-0.3,1.1-0.7,1.6-1.1c1.7-1.5,2.8-3.9,2.8-6l6.1,6.8
			c0.5-0.4,0.9-1,0.9-1.8l0.6-7l-22.2-1C72.6,69.3,72.9,72.7,75.1,75.1z"/>
	</g>
	<path class="st4" d="M118.1,27.5c1.4-1.3,3.3-1.9,5.2-1.7c0.4,0,0.8-0.2,0.9-0.5c0.2-0.3,0.1-0.8-0.1-1.1l-15.3-17
		c-0.3-0.4-0.9-0.4-1.3-0.1l-7.8,7.1c-0.1,0.1-0.2,0.1-0.3,0.2l-9.5,8.5c-0.3,0.3-0.4,0.7-0.2,1.1c0.2,0.4,0.6,0.6,1,0.6
		c2.1-0.2,4.3,0.5,5.7,2.1c1.2,1.3,1.8,3,1.7,4.8c-0.1,1.8-0.9,3.4-2.2,4.6c-2.7,2.5-7,2.3-9.4-0.5c-1.4-1.6-2-3.8-1.5-5.9
		c0.1-0.4-0.1-0.8-0.4-1s-0.8-0.2-1.1,0.1L66,44.5c-0.4,0.3-0.4,0.9-0.1,1.3l14,15.5c-1.7,0.3-3.5,1.1-4.8,2.3
		c-3.5,3.2-3.8,8.6-0.7,12.1s8.6,3.8,12.1,0.6c1.3-1.2,2.4-2.9,2.8-4.6L94,77c0,0,0,0,0,0.1c0,0,0.1,0.1,0.1,0.1l9.2,10.2
		c0.3,0.4,0.9,0.4,1.3,0.1l15.5-14c0.2,1.7,0.9,3.3,2.1,4.6c3.1,3.5,8.5,3.7,11.9,0.6c3.5-3.1,3.8-8.5,0.7-11.9
		c-1.2-1.3-2.7-2.2-4.4-2.6L146.1,50c0.4-0.3,0.4-0.9,0.1-1.3l-15.3-17c-0.3-0.3-0.7-0.4-1-0.2c-0.4,0.1-0.6,0.5-0.6,0.9
		c0,1.9-0.8,3.7-2.2,5c-2.7,2.5-7,2.3-9.4-0.5C115.1,34.1,115.4,29.9,118.1,27.5z M99.2,17.1c0,0.7,0,1.3-0.1,2l-0.6,7.5
		c-0.3-0.4-0.5-0.8-0.9-1.1c-1.3-1.4-3-2.3-4.8-2.7C92.9,22.8,99.2,17.1,99.2,17.1z M85.2,74.9c-2.7,2.5-7,2.3-9.4-0.5
		c-2.4-2.7-2.2-6.9,0.5-9.4c1.5-1.4,3.7-2.1,5.5-1.9c0.4,0,0.8-0.2,0.9-0.5c0.2-0.3,0.1-0.8-0.1-1.1L67.9,45.2l14.9-13.4
		c0.1,1.9,0.9,3.7,2.2,5.1c3.1,3.5,8.6,3.8,12.1,0.6c0.3-0.2,0.5-0.5,0.7-0.7l-3,37.8c0,0.1,0,0.2-0.1,0.3L89.3,69
		c-0.3-0.3-0.7-0.4-1-0.2c-0.4,0.1-0.6,0.5-0.6,0.9C87.7,71.5,86.7,73.6,85.2,74.9z M116.2,38.1c3.1,3.5,8.6,3.8,12.1,0.6
		c1.3-1.1,2.2-2.6,2.6-4.2l13.3,14.8l-16.6,14.9c-0.3,0.3-0.4,0.7-0.2,1.1c0.2,0.4,0.5,0.6,0.9,0.6c2-0.1,3.8,0.7,5.2,2.1
		c2.4,2.7,2.2,6.8-0.5,9.3s-6.9,2.2-9.3-0.4c-1.3-1.5-1.9-3.4-1.6-5.3c0.1-0.4-0.1-0.8-0.5-1c-0.4-0.2-0.8-0.1-1.1,0.1L104,85.3
		l-8-8.9c0.3-0.5,0.5-1.1,0.6-1.7l4.4-55.5c0.1-1.3,0.1-2.6,0-3.8l6.9-6.3l13.3,14.8c-1.7,0.2-3.2,1-4.5,2.1
		C113.3,29.2,113,34.6,116.2,38.1z"/>
</g>
</svg>
