<?xml version="1.0" encoding="utf-8"?>
<!-- Generator: Adobe Illustrator 21.1.0, SVG Export Plug-In . SVG Version: 6.00 Build 0)  -->
<svg version="1.1" id="Layer_1" xmlns="http://www.w3.org/2000/svg" xmlns:xlink="http://www.w3.org/1999/xlink" x="0px" y="0px"
	 viewBox="0 0 466.3 111" style="enable-background:new 0 0 466.3 111;" xml:space="preserve">
<style type="text/css">
	.st0{fill:#435CE2;stroke:#435CE2;stroke-miterlimit:10;}
	.st1{fill:#FFFFFF;}
</style>
<g>
	<path class="st0" d="M39.9,7.9c17,0,28,9.2,28,24.8c0,9.7-4.3,16.5-11.1,20.2c9.5,2.7,16.9,11.1,16.9,23.6c0,15.8-11.8,27-28.7,27
		H9.5V7.9H39.9z M24.9,21.3V47h14.3c7.6,0,14.2-4.3,14.2-13.3c0-8.9-6.5-12.4-15-12.4H24.9z M24.9,60.4v28.8h18.6
		c9,0,16-4.5,16-14.4s-7.1-14.4-17.2-14.4H24.9z"/>
	<path class="st0" d="M83.5,6.5l14.4-2.9v78.4c0,5.2,0.9,7.9,4.5,9.9l-1.9,12.2c-8.9,0-17.1-5.2-17.1-16.2V6.5z"/>
	<path class="st0" d="M109,69.7c0-20.9,14.2-35.1,32.6-35.1c18.4,0,32.6,14,32.6,34.9c0,20.9-14.3,35.2-32.7,35.2
		C123.1,104.7,109,90.6,109,69.7z M159.5,69.6c0-12.4-7.6-21.1-17.9-21.1c-10.2,0-18,8.7-18,21.2c0,12.4,7.6,21.4,17.9,21.4
		C151.6,91,159.5,82,159.5,69.6z"/>
	<path class="st0" d="M203.1,91.9c5.6,0,11.2-1.9,11.2-7.5c0-13.3-32.9-4.1-32.9-29.1c0-14.2,10.6-20.7,23.4-20.7
		c8.5,0,16.1,2.9,22,7.8l-5.5,9.7c-4.7-3.2-10.7-5.1-15.5-5.1c-5.2,0-10.1,2.1-10.1,7.2c0,13.2,33.1,4.7,33.1,29.5
		c0,14.3-11,20.9-24.9,20.9c-10.4,0-17.1-3.7-24.7-9.9l6.5-9.4C191.1,89.3,196.5,91.9,203.1,91.9z"/>
	<path class="st0" d="M257.4,91.9c5.6,0,11.2-1.9,11.2-7.5c0-13.3-32.9-4.1-32.9-29.1c0-14.2,10.6-20.7,23.4-20.7
		c8.5,0,16.1,2.9,22,7.8l-5.5,9.7c-4.7-3.2-10.7-5.1-15.5-5.1c-5.2,0-10.1,2.1-10.1,7.2c0,13.2,33.1,4.7,33.1,29.5
		c0,14.3-11,20.9-24.9,20.9c-10.4,0-17.1-3.7-24.7-9.9l6.5-9.4C245.4,89.3,250.8,91.9,257.4,91.9z"/>
	<path class="st0" d="M288.8,69.7c0-20.9,14.2-35.1,32.6-35.1c18.4,0,32.6,14,32.6,34.9c0,20.9-14.3,35.2-32.7,35.2
		C302.9,104.7,288.8,90.6,288.8,69.7z M339.2,69.6c0-12.4-7.6-21.1-17.9-21.1c-10.2,0-18,8.7-18,21.2C303.4,82,311,91,321.3,91
		C331.4,91,339.2,82,339.2,69.6z"/>
	<path class="st0" d="M363.3,103.6V36.7h12l1.2,9.1c4-6.8,11.2-10.4,18.9-10.4c7.8,0,15.2,3.7,18.8,11.1
		c4.5-7.5,12.4-11.1,20.9-11.1c15.4,0,21.8,11.2,21.8,27.6v40.6h-14.4V63.5c0-8.9-3.3-14.6-11.3-14.7c-9.1-0.1-13.4,7.3-13.4,17
		v37.8h-14.4V63.5c0-8.8-3.4-14.7-11.4-14.7c-8.9,0-13.3,7.4-13.3,17v37.8H363.3z"/>
</g>
</svg>
