<?xml version="1.0" encoding="utf-8"?>
<!-- Generator: Adobe Illustrator 19.2.1, SVG Export Plug-In . SVG Version: 6.00 Build 0)  -->
<svg version="1.1" id="Layer_1" xmlns="http://www.w3.org/2000/svg" xmlns:xlink="http://www.w3.org/1999/xlink" x="0px" y="0px"
	 viewBox="0 0 179.889 150" style="enable-background:new 0 0 179.889 150;" xml:space="preserve">
<style type="text/css">
	.st0{display:none;fill:none;stroke:#FFFFFF;stroke-width:2;stroke-linecap:round;stroke-miterlimit:10;}
	.st1{fill:#9D2106;}
	.st2{fill:#822104;}
	.st3{fill:#951B05;}
	.st4{fill:#FFFFFF;}
	.st5{fill:#8A1F0C;}
	.st6{fill:#E2E3E4;}
	.st7{fill:#6DA2C8;}
	.st8{fill:#D6E6EF;}
	.st9{fill:#B49CB5;}
	.st10{fill:#AC9EB6;}
	.st11{fill:#EBF3F7;}
	.st12{fill:#A69FB5;}
	.st13{fill:#B99FB5;}
	.st14{fill:#D093FB;}
	.st15{fill:#45F8B9;}
	.st16{fill:#41E8A3;}
	.st17{fill:#3072AA;}
	.st18{fill:#FD9E99;}
	.st19{fill:#9ED098;}
	.st20{fill:#75C5B6;}
	.st21{fill:#8DB485;}
	.st22{fill:#5AB49E;}
	.st23{fill:#E4E5E6;}
	.st24{fill:#788782;}
	.st25{fill:#CFD1D2;}
	.st26{fill:#BABCBE;}
	.st27{fill:#998379;}
	.st28{fill:#826D64;}
	.st29{fill:#EFF0F0;}
	.st30{fill:#58515B;}
	.st31{fill:#B98BD2;}
	.st32{fill:#9756AC;}
	.st33{fill:#814497;}
	.st34{fill:#25B598;}
	.st35{fill:#008B84;}
	.st36{fill:#7BE4C2;}
	.st37{fill:#25A48D;}
	.st38{fill:#68DAB4;}
	.st39{fill:#9CFFB4;}
	.st40{fill:#4D5CEA;}
	.st41{fill:#FF9B95;}
	.st42{fill:#FF868C;}
	.st43{fill:#FF6B77;}
	.st44{fill:#EF85FF;}
	.st45{fill:#C44FD7;}
	.st46{fill:#006838;}
	.st47{fill:#005E26;}
	.st48{fill:#5D3A47;}
	.st49{fill:#FFBC13;}
	.st50{fill:#808083;}
	.st51{fill:#56C681;}
	.st52{fill:#6D6E71;}
	.st53{fill:#D3951D;}
	.st54{fill:#3FB068;}
	.st55{fill:#FBEEEE;}
	.st56{fill:#FBF0F1;}
	.st57{fill:#F9E7E8;}
	.st58{fill:#F5D9DB;}
	.st59{fill:#F1C9CC;}
	.st60{fill:#44A468;}
	.st61{fill:#389D61;}
	.st62{fill:#E7A1A5;}
	.st63{fill:#2DAB5B;}
	.st64{fill:#4EC5FF;}
	.st65{fill:#3EA2FF;}
	.st66{fill:#00774E;}
	.st67{fill:#673DAB;}
	.st68{fill:#DEFF5C;}
	.st69{fill:#00BFE0;}
	.st70{fill:#E1329F;}
	.st71{fill:#00BAA3;}
	.st72{fill:#00DCA3;}
	.st73{fill:#00A9E0;}
	.st74{fill:#FF329F;}
	.st75{fill:#FD76A2;}
	.st76{fill:#E76899;}
	.st77{fill:#A37550;}
	.st78{fill:#956744;}
	.st79{fill:#504239;}
	.st80{fill:#FD86AE;}
	.st81{fill:#F5A7D6;}
	.st82{fill:#A54A78;}
	.st83{fill:#D898FF;}
	.st84{fill:#76DDED;}
	.st85{fill:#D888FF;}
	.st86{fill:#715D94;}
	.st87{fill:#52A871;}
	.st88{fill:#F9CA40;}
	.st89{fill:#F9B240;}
	.st90{fill:#919396;}
	.st91{fill:none;stroke:#7CACCD;stroke-width:2;stroke-linecap:round;stroke-linejoin:round;stroke-miterlimit:10;}
	.st92{fill:#1C75BA;}
	.st93{fill:#726658;}
	.st94{fill:#138B38;}
	.st95{fill:#675D50;}
	.st96{fill:#13A138;}
	.st97{fill:#C5C7C8;}
	.st98{fill:#224463;}
	.st99{fill:#594A42;}
	.st100{fill:#1C65AC;}
	.st101{fill:#A5A7AA;}
	.st102{fill:#007E38;}
	.st103{fill:#8F6764;}
	.st104{fill:#7F5C59;}
	.st105{fill:#A47572;}
	.st106{fill:#845F5C;}
	.st107{fill:#86615E;}
	.st108{fill:#AF7C79;}
	.st109{fill:#996E6B;}
	.st110{fill:#996D6A;}
	.st111{fill:#735758;}
	.st112{fill:#906742;}
	.st113{fill:#EEEFEF;}
	.st114{fill:#CED0D1;}
	.st115{fill:#E3E4E5;}
	.st116{fill:#81593D;}
	.st117{fill:#57342B;}
	.st118{fill:#F4911E;}
	.st119{fill:#EE5A29;}
	.st120{fill:#58595B;}
	.st121{fill:#A3D3E3;}
	.st122{fill:#DD840D;}
	.st123{fill:#B9BBBD;}
	.st124{fill:#D44B29;}
	.st125{fill:#C2E2ED;}
	.st126{fill:#4A4C4F;}
	.st127{fill:#414042;}
</style>
<g>
	<g>
		<g>
			<path class="st118" d="M162.061,119v9.53c0,2.47-2,4.47-4.47,4.47h-6.53l-0.01,0.01c-1.68-3.55-5.3-6.01-9.49-6.01
				s-7.81,2.46-9.49,6.01l-0.01-0.01h-16.48v-14h45.48H162.061z"/>
			<path class="st119" d="M162.061,110.47V119h-1h-45.48V89h23.48l4.63,6.56l-0.63,0.44h-15v10h23h6.53
				C160.061,106,162.061,108,162.061,110.47z"/>
			<path class="st120" d="M151.051,133.01c0.65,1.36,1.01,2.88,1.01,4.49c0,5.8-4.7,10.5-10.5,10.5c-2.72,0-5.19-1.04-7.06-2.73
				c-2.11-1.92-3.44-4.69-3.44-7.77c0-1.61,0.36-3.13,1.01-4.49c1.68-3.55,5.3-6.01,9.49-6.01S149.371,129.46,151.051,133.01z"/>
			<polygon class="st121" points="143.691,95.56 151.061,106 128.061,106 128.061,96 143.061,96 			"/>
			<path class="st4" d="M132.521,42.94c3.98,0,7.06,3.7,7.06,7.68s-3.39,7.38-7.38,7.38h-18.56c-1.53-1.83-3.84-3-6.41-3h-82.87
				v-0.23c-1-1.24-1.6-2.81-1.6-4.52c0-3.99,3.24-7.23,7.22-7.23h2.58c1.71,0,3.1-1.39,3.1-3.09c0-1.71-1.16-2.85-2.87-2.85h-11.86
				c-3.99,0-7.23-3.24-7.23-7.22s3.24-7.22,7.23-7.22h27.34c1.71,0,3.09-1.61,3.09-3.32c0-1.71-1.38-3.32-3.09-3.32h-7.46
				c-3.98,0-7.23-3.24-7.23-7.22c0-3.99,3.25-6.78,7.23-6.78c0,0,47.46,0,47.55,0c3.98,0,7.45,2.79,7.45,6.78
				c0,3.98-3.24,7.22-7.23,7.22c-0.17,0-6.89,0-7.07,0c-1.37,0-2.63,0.98-2.8,2.68c-0.18,1.83,1.17,3.32,2.87,3.32h8.78h20.12
				c3.98,0,7.22,3.24,7.22,7.22c0,3.99-3.54,7.86-7.52,7.86h-14.5c-1.71,0-2.94,1.05-2.94,2.76s1.39,3.1,3.1,3.1H132.521z"/>
			<g>
				<path class="st115" d="M40.811,16h7.46c1.71,0,3.09,1.61,3.09,3.32c0,1.71-1.38,3.32-3.09,3.32h20.48
					c1.71,0,3.09-1.61,3.09-3.32c0-1.71-1.38-3.32-3.09-3.32h-7.46c-3.98,0-7.23-3.24-7.23-7.22c0-3.99,3.25-6.78,7.23-6.78
					c-10.693,0-20.48,0-20.48,0c-3.98,0-7.23,2.79-7.23,6.78C33.581,12.76,36.831,16,40.811,16z"/>
				<path class="st115" d="M43.241,50.25c0-3.99,3.24-7.23,7.22-7.23h2.58c1.71,0,3.1-1.39,3.1-3.09c0-1.71-1.16-2.85-2.87-2.85
					h-11.86c-3.99,0-7.23-3.24-7.23-7.22s3.24-7.22,7.23-7.22h-20.48c-3.99,0-7.23,3.24-7.23,7.22s3.24,7.22,7.23,7.22h11.86
					c1.71,0,2.87,1.14,2.87,2.85c0,1.7-1.39,3.09-3.1,3.09h-2.58c-3.98,0-7.22,3.24-7.22,7.23c0,1.71,0.6,3.28,1.6,4.52V55h20.48
					v-0.23C43.841,53.53,43.241,51.96,43.241,50.25z"/>
			</g>
			<path class="st118" d="M115.581,119v14h-74.52l-0.01,0.01c-1.68-3.55-5.3-6.01-9.49-6.01s-7.81,2.46-9.49,6.01l-0.01-0.01H1.581
				v-14h0.48H115.581z"/>
			<path class="st114" d="M113.641,58c1.21,1.45,1.94,3.32,1.94,5.36V89v30H2.061h-0.48V63.36c0-4.62,3.75-8.36,8.36-8.36h14.42
				h82.87C109.801,55,112.111,56.17,113.641,58z"/>
			<path class="st120" d="M41.051,133.01c0.65,1.36,1.01,2.88,1.01,4.49c0,3.4-1.62,6.43-4.13,8.34c-1.77,1.35-3.97,2.16-6.37,2.16
				c-5.8,0-10.5-4.7-10.5-10.5c0-1.61,0.36-3.13,1.01-4.49c1.68-3.55,5.3-6.01,9.49-6.01S39.371,129.46,41.051,133.01z"/>
			<g>
				<rect x="115.581" y="119" class="st122" width="16.48" height="14"/>
				<polygon class="st122" points="132.061,133 132.071,133.01 132.076,133 				"/>
			</g>
			<g>
				<polygon class="st122" points="2.061,119 1.581,119 1.581,133 20.061,133 20.061,119 				"/>
				<polygon class="st115" points="22.061,133 22.071,133.01 22.076,133 				"/>
			</g>
			<path class="st123" d="M28.421,55h-4.06H9.941c-4.61,0-8.36,3.74-8.36,8.36V119h0.48h18V63.36C20.061,58.74,23.811,55,28.421,55z
				"/>
			<polygon class="st124" points="128.061,106 128.061,96 132.061,96 132.061,89 115.581,89 115.581,119 132.061,119 132.061,106 
							"/>
			<polygon class="st125" points="143.691,95.56 143.061,96 135.001,96 142.061,106 151.061,106 			"/>
			<path class="st126" d="M142.501,145.27c-2.11-1.92-3.44-4.69-3.44-7.77c0-1.61,0.36-3.13,1.01-4.49
				c1.112-2.349,3.076-4.216,5.49-5.213c-1.234-0.51-2.583-0.797-4-0.797c-4.19,0-7.81,2.46-9.49,6.01
				c-0.65,1.36-1.01,2.88-1.01,4.49c0,3.08,1.33,5.85,3.44,7.77c1.87,1.69,4.34,2.73,7.06,2.73c1.42,0,2.772-0.285,4.008-0.796
				C144.435,146.736,143.397,146.08,142.501,145.27z"/>
			<path class="st126" d="M29.061,137.5c0-1.61,0.36-3.13,1.01-4.49c1.112-2.349,3.076-4.216,5.49-5.213
				c-1.234-0.51-2.583-0.797-4-0.797c-4.19,0-7.81,2.46-9.49,6.01c-0.65,1.36-1.01,2.88-1.01,4.49c0,5.8,4.7,10.5,10.5,10.5
				c1.416,0,2.76-0.288,3.989-0.797C31.741,145.627,29.061,141.879,29.061,137.5z"/>
		</g>
		<g>
			<path class="st127" d="M178.061,144h-25.843c1.161-1.897,1.843-4.118,1.843-6.5c0-0.852-0.095-1.685-0.261-2.5h3.791
				c3.567,0,6.47-2.902,6.47-6.47V110.47c0-3.567-2.902-6.47-6.47-6.47h-5.494l-11.402-16.153c-0.026-0.037-0.06-0.066-0.088-0.101
				c-0.05-0.062-0.099-0.124-0.156-0.18c-0.045-0.044-0.096-0.08-0.145-0.119c-0.052-0.042-0.102-0.085-0.159-0.122
				c-0.053-0.034-0.109-0.06-0.164-0.089c-0.06-0.031-0.119-0.065-0.182-0.09c-0.056-0.022-0.115-0.036-0.173-0.054
				c-0.066-0.02-0.131-0.042-0.2-0.055c-0.068-0.013-0.137-0.015-0.206-0.021c-0.054-0.004-0.106-0.016-0.161-0.016h-21.48V63.36
				c0-1.151-0.198-2.285-0.566-3.36H132.2c5.084,0,9.38-4.295,9.38-9.38c0-5.247-4.148-9.68-9.06-9.68h-36.68
				c-0.606,0-1.101-0.494-1.101-1.1c0-0.247,0-0.76,0.94-0.76h14.5c4.982,0,9.52-4.7,9.52-9.86c0-5.084-4.136-9.22-9.22-9.22h-28.9
				c-0.323,0-0.531-0.176-0.626-0.282c-0.113-0.125-0.297-0.4-0.253-0.839C80.78,18.085,81.294,18,81.511,18h7.069
				c5.09,0,9.23-4.136,9.23-9.22c0-4.923-4.151-8.78-9.45-8.78h-47.55c-5.263,0-9.23,3.774-9.23,8.78c0,5.084,4.141,9.22,9.23,9.22
				h7.46c0.54,0,1.09,0.666,1.09,1.32s-0.55,1.32-1.09,1.32h-27.34c-5.09,0-9.23,4.136-9.23,9.22s4.141,9.22,9.23,9.22H32.79
				c0.61,0,0.87,0.254,0.87,0.85c0,0.601-0.493,1.09-1.1,1.09h-2.58c-5.084,0-9.22,4.141-9.22,9.23c0,0.937,0.153,1.863,0.433,2.75
				H9.941C4.228,53-0.42,57.647-0.42,63.36V133c0,1.104,0.896,2,2,2h17.741c-0.166,0.815-0.261,1.648-0.261,2.5
				c0,2.382,0.682,4.603,1.843,6.5h-6.843c-1.104,0-2,0.896-2,2s0.896,2,2,2h10.742c1.951,1.26,4.267,2,6.758,2
				c2.426,0,4.748-0.69,6.771-2h95.729c0.208,0,0.405-0.041,0.594-0.1c2.043,1.357,4.434,2.1,6.906,2.1c2.49,0,4.807-0.74,6.758-2
				h29.742c1.104,0,2-0.896,2-2S179.165,144,178.061,144z M142.966,98l4.235,6h-17.14v-6H142.966z M117.58,91h20.444l2.118,3
				h-12.082c-1.104,0-2,0.896-2,2v10c0,1.104,0.896,2,2,2h23h6.53c1.362,0,2.47,1.107,2.47,2.47V117h-42.48V91z M29.981,45.02h2.58
				c2.812,0,5.1-2.283,5.1-5.09c0-2.811-2.048-4.85-4.87-4.85H20.931c-2.884,0-5.23-2.342-5.23-5.22s2.347-5.22,5.23-5.22h27.34
				c2.759,0,5.09-2.437,5.09-5.32S51.029,14,48.271,14h-7.46c-2.884,0-5.23-2.342-5.23-5.22c0-2.77,2.2-4.78,5.23-4.78h47.55
				c2.679,0,5.45,1.788,5.45,4.78c0,2.878-2.347,5.22-5.23,5.22h-7.069c-2.516,0-4.53,1.885-4.79,4.484
				c-0.143,1.444,0.32,2.873,1.27,3.92C78.909,23.418,80.218,24,81.58,24h28.9c2.878,0,5.22,2.342,5.22,5.22
				c0,2.958-2.734,5.86-5.52,5.86h-14.5c-2.862,0-4.94,2.002-4.94,4.76c0,2.812,2.288,5.1,5.101,5.1h36.68
				c2.695,0,5.06,2.654,5.06,5.68c0,2.866-2.514,5.38-5.38,5.38h-17.695c-1.932-1.914-4.53-3-7.274-3H25.569
				c-0.521-0.827-0.808-1.762-0.808-2.75C24.761,47.366,27.103,45.02,29.981,45.02z M3.58,63.36c0-3.507,2.854-6.36,6.36-6.36h97.29
				c1.858,0,3.609,0.811,4.818,2.221c0.026,0.033,0.053,0.065,0.081,0.096c0.934,1.135,1.45,2.568,1.45,4.042V89v28h-110V63.36z
				 M36.718,144.25c-1.501,1.145-3.284,1.75-5.157,1.75c-4.687,0-8.5-3.813-8.5-8.5c0-1.275,0.274-2.496,0.817-3.635
				c1.399-2.955,4.415-4.865,7.683-4.865s6.283,1.91,7.683,4.865c0.001,0.002,0.002,0.004,0.003,0.006
				c0.54,1.133,0.814,2.354,0.814,3.629C40.061,140.173,38.843,142.632,36.718,144.25z M31.561,125c-4.365,0-8.418,2.322-10.666,6
				H3.58v-10h110v10H42.226C39.975,127.32,35.924,125,31.561,125z M42.232,144c1.178-1.926,1.829-4.154,1.829-6.5
				c0-0.852-0.095-1.685-0.261-2.5h71.78h13.741c-0.166,0.815-0.261,1.648-0.261,2.5c0,2.311,0.658,4.555,1.844,6.5H42.232z
				 M141.561,146c-2.108,0-4.14-0.786-5.714-2.21c-1.771-1.611-2.786-3.903-2.786-6.29c0-1.275,0.274-2.496,0.817-3.635
				c1.399-2.955,4.415-4.865,7.683-4.865s6.283,1.91,7.683,4.865c0.001,0.002,0.002,0.004,0.003,0.006
				c0.54,1.133,0.814,2.354,0.814,3.629C150.061,142.187,146.247,146,141.561,146z M141.561,125c-4.365,0-8.418,2.322-10.666,6
				H117.58v-10h42.48v7.53c0,1.362-1.107,2.47-2.47,2.47h-5.365C149.975,127.32,145.924,125,141.561,125z"/>
		</g>
	</g>
</g>
</svg>
